<?xml version="1.0" encoding="UTF-8"?>
<svg xmlns="http://www.w3.org/2000/svg" xmlns:xlink="http://www.w3.org/1999/xlink" version="1.1" width="400px" height="400px" viewBox="0 0 400 400"><defs><rect id="r0" width="12" height="12" fill="#000000"/></defs><rect x="0" y="0" width="400" height="400" fill="#ffffff"/><use x="26" y="26" xlink:href="#r0"/><use x="38" y="26" xlink:href="#r0"/><use x="50" y="26" xlink:href="#r0"/><use x="62" y="26" xlink:href="#r0"/><use x="74" y="26" xlink:href="#r0"/><use x="86" y="26" xlink:href="#r0"/><use x="98" y="26" xlink:href="#r0"/><use x="182" y="26" xlink:href="#r0"/><use x="194" y="26" xlink:href="#r0"/><use x="206" y="26" xlink:href="#r0"/><use x="290" y="26" xlink:href="#r0"/><use x="302" y="26" xlink:href="#r0"/><use x="314" y="26" xlink:href="#r0"/><use x="326" y="26" xlink:href="#r0"/><use x="338" y="26" xlink:href="#r0"/><use x="350" y="26" xlink:href="#r0"/><use x="362" y="26" xlink:href="#r0"/><use x="26" y="38" xlink:href="#r0"/><use x="98" y="38" xlink:href="#r0"/><use x="134" y="38" xlink:href="#r0"/><use x="146" y="38" xlink:href="#r0"/><use x="170" y="38" xlink:href="#r0"/><use x="182" y="38" xlink:href="#r0"/><use x="194" y="38" xlink:href="#r0"/><use x="206" y="38" xlink:href="#r0"/><use x="218" y="38" xlink:href="#r0"/><use x="230" y="38" xlink:href="#r0"/><use x="254" y="38" xlink:href="#r0"/><use x="290" y="38" xlink:href="#r0"/><use x="362" y="38" xlink:href="#r0"/><use x="26" y="50" xlink:href="#r0"/><use x="50" y="50" xlink:href="#r0"/><use x="62" y="50" xlink:href="#r0"/><use x="74" y="50" xlink:href="#r0"/><use x="98" y="50" xlink:href="#r0"/><use x="122" y="50" xlink:href="#r0"/><use x="146" y="50" xlink:href="#r0"/><use x="170" y="50" xlink:href="#r0"/><use x="182" y="50" xlink:href="#r0"/><use x="206" y="50" xlink:href="#r0"/><use x="242" y="50" xlink:href="#r0"/><use x="254" y="50" xlink:href="#r0"/><use x="266" y="50" xlink:href="#r0"/><use x="290" y="50" xlink:href="#r0"/><use x="314" y="50" xlink:href="#r0"/><use x="326" y="50" xlink:href="#r0"/><use x="338" y="50" xlink:href="#r0"/><use x="362" y="50" xlink:href="#r0"/><use x="26" y="62" xlink:href="#r0"/><use x="50" y="62" xlink:href="#r0"/><use x="62" y="62" xlink:href="#r0"/><use x="74" y="62" xlink:href="#r0"/><use x="98" y="62" xlink:href="#r0"/><use x="122" y="62" xlink:href="#r0"/><use x="170" y="62" xlink:href="#r0"/><use x="194" y="62" xlink:href="#r0"/><use x="206" y="62" xlink:href="#r0"/><use x="242" y="62" xlink:href="#r0"/><use x="290" y="62" xlink:href="#r0"/><use x="314" y="62" xlink:href="#r0"/><use x="326" y="62" xlink:href="#r0"/><use x="338" y="62" xlink:href="#r0"/><use x="362" y="62" xlink:href="#r0"/><use x="26" y="74" xlink:href="#r0"/><use x="50" y="74" xlink:href="#r0"/><use x="62" y="74" xlink:href="#r0"/><use x="74" y="74" xlink:href="#r0"/><use x="98" y="74" xlink:href="#r0"/><use x="122" y="74" xlink:href="#r0"/><use x="146" y="74" xlink:href="#r0"/><use x="158" y="74" xlink:href="#r0"/><use x="170" y="74" xlink:href="#r0"/><use x="206" y="74" xlink:href="#r0"/><use x="218" y="74" xlink:href="#r0"/><use x="254" y="74" xlink:href="#r0"/><use x="290" y="74" xlink:href="#r0"/><use x="314" y="74" xlink:href="#r0"/><use x="326" y="74" xlink:href="#r0"/><use x="338" y="74" xlink:href="#r0"/><use x="362" y="74" xlink:href="#r0"/><use x="26" y="86" xlink:href="#r0"/><use x="98" y="86" xlink:href="#r0"/><use x="122" y="86" xlink:href="#r0"/><use x="134" y="86" xlink:href="#r0"/><use x="146" y="86" xlink:href="#r0"/><use x="230" y="86" xlink:href="#r0"/><use x="254" y="86" xlink:href="#r0"/><use x="290" y="86" xlink:href="#r0"/><use x="362" y="86" xlink:href="#r0"/><use x="26" y="98" xlink:href="#r0"/><use x="38" y="98" xlink:href="#r0"/><use x="50" y="98" xlink:href="#r0"/><use x="62" y="98" xlink:href="#r0"/><use x="74" y="98" xlink:href="#r0"/><use x="86" y="98" xlink:href="#r0"/><use x="98" y="98" xlink:href="#r0"/><use x="122" y="98" xlink:href="#r0"/><use x="146" y="98" xlink:href="#r0"/><use x="170" y="98" xlink:href="#r0"/><use x="194" y="98" xlink:href="#r0"/><use x="218" y="98" xlink:href="#r0"/><use x="242" y="98" xlink:href="#r0"/><use x="266" y="98" xlink:href="#r0"/><use x="290" y="98" xlink:href="#r0"/><use x="302" y="98" xlink:href="#r0"/><use x="314" y="98" xlink:href="#r0"/><use x="326" y="98" xlink:href="#r0"/><use x="338" y="98" xlink:href="#r0"/><use x="350" y="98" xlink:href="#r0"/><use x="362" y="98" xlink:href="#r0"/><use x="122" y="110" xlink:href="#r0"/><use x="134" y="110" xlink:href="#r0"/><use x="170" y="110" xlink:href="#r0"/><use x="194" y="110" xlink:href="#r0"/><use x="218" y="110" xlink:href="#r0"/><use x="230" y="110" xlink:href="#r0"/><use x="242" y="110" xlink:href="#r0"/><use x="254" y="110" xlink:href="#r0"/><use x="266" y="110" xlink:href="#r0"/><use x="26" y="122" xlink:href="#r0"/><use x="50" y="122" xlink:href="#r0"/><use x="62" y="122" xlink:href="#r0"/><use x="74" y="122" xlink:href="#r0"/><use x="86" y="122" xlink:href="#r0"/><use x="98" y="122" xlink:href="#r0"/><use x="146" y="122" xlink:href="#r0"/><use x="158" y="122" xlink:href="#r0"/><use x="170" y="122" xlink:href="#r0"/><use x="230" y="122" xlink:href="#r0"/><use x="266" y="122" xlink:href="#r0"/><use x="290" y="122" xlink:href="#r0"/><use x="302" y="122" xlink:href="#r0"/><use x="314" y="122" xlink:href="#r0"/><use x="326" y="122" xlink:href="#r0"/><use x="338" y="122" xlink:href="#r0"/><use x="62" y="134" xlink:href="#r0"/><use x="122" y="134" xlink:href="#r0"/><use x="146" y="134" xlink:href="#r0"/><use x="182" y="134" xlink:href="#r0"/><use x="194" y="134" xlink:href="#r0"/><use x="206" y="134" xlink:href="#r0"/><use x="242" y="134" xlink:href="#r0"/><use x="254" y="134" xlink:href="#r0"/><use x="266" y="134" xlink:href="#r0"/><use x="278" y="134" xlink:href="#r0"/><use x="302" y="134" xlink:href="#r0"/><use x="314" y="134" xlink:href="#r0"/><use x="326" y="134" xlink:href="#r0"/><use x="350" y="134" xlink:href="#r0"/><use x="26" y="146" xlink:href="#r0"/><use x="38" y="146" xlink:href="#r0"/><use x="50" y="146" xlink:href="#r0"/><use x="86" y="146" xlink:href="#r0"/><use x="98" y="146" xlink:href="#r0"/><use x="122" y="146" xlink:href="#r0"/><use x="182" y="146" xlink:href="#r0"/><use x="194" y="146" xlink:href="#r0"/><use x="206" y="146" xlink:href="#r0"/><use x="230" y="146" xlink:href="#r0"/><use x="254" y="146" xlink:href="#r0"/><use x="302" y="146" xlink:href="#r0"/><use x="326" y="146" xlink:href="#r0"/><use x="338" y="146" xlink:href="#r0"/><use x="26" y="158" xlink:href="#r0"/><use x="38" y="158" xlink:href="#r0"/><use x="50" y="158" xlink:href="#r0"/><use x="62" y="158" xlink:href="#r0"/><use x="110" y="158" xlink:href="#r0"/><use x="170" y="158" xlink:href="#r0"/><use x="182" y="158" xlink:href="#r0"/><use x="206" y="158" xlink:href="#r0"/><use x="254" y="158" xlink:href="#r0"/><use x="278" y="158" xlink:href="#r0"/><use x="290" y="158" xlink:href="#r0"/><use x="302" y="158" xlink:href="#r0"/><use x="314" y="158" xlink:href="#r0"/><use x="326" y="158" xlink:href="#r0"/><use x="362" y="158" xlink:href="#r0"/><use x="26" y="170" xlink:href="#r0"/><use x="50" y="170" xlink:href="#r0"/><use x="86" y="170" xlink:href="#r0"/><use x="98" y="170" xlink:href="#r0"/><use x="122" y="170" xlink:href="#r0"/><use x="134" y="170" xlink:href="#r0"/><use x="146" y="170" xlink:href="#r0"/><use x="158" y="170" xlink:href="#r0"/><use x="170" y="170" xlink:href="#r0"/><use x="194" y="170" xlink:href="#r0"/><use x="206" y="170" xlink:href="#r0"/><use x="218" y="170" xlink:href="#r0"/><use x="230" y="170" xlink:href="#r0"/><use x="266" y="170" xlink:href="#r0"/><use x="278" y="170" xlink:href="#r0"/><use x="290" y="170" xlink:href="#r0"/><use x="302" y="170" xlink:href="#r0"/><use x="314" y="170" xlink:href="#r0"/><use x="26" y="182" xlink:href="#r0"/><use x="38" y="182" xlink:href="#r0"/><use x="50" y="182" xlink:href="#r0"/><use x="62" y="182" xlink:href="#r0"/><use x="74" y="182" xlink:href="#r0"/><use x="86" y="182" xlink:href="#r0"/><use x="122" y="182" xlink:href="#r0"/><use x="146" y="182" xlink:href="#r0"/><use x="206" y="182" xlink:href="#r0"/><use x="266" y="182" xlink:href="#r0"/><use x="278" y="182" xlink:href="#r0"/><use x="326" y="182" xlink:href="#r0"/><use x="350" y="182" xlink:href="#r0"/><use x="26" y="194" xlink:href="#r0"/><use x="38" y="194" xlink:href="#r0"/><use x="50" y="194" xlink:href="#r0"/><use x="62" y="194" xlink:href="#r0"/><use x="86" y="194" xlink:href="#r0"/><use x="98" y="194" xlink:href="#r0"/><use x="110" y="194" xlink:href="#r0"/><use x="122" y="194" xlink:href="#r0"/><use x="146" y="194" xlink:href="#r0"/><use x="158" y="194" xlink:href="#r0"/><use x="230" y="194" xlink:href="#r0"/><use x="254" y="194" xlink:href="#r0"/><use x="326" y="194" xlink:href="#r0"/><use x="338" y="194" xlink:href="#r0"/><use x="350" y="194" xlink:href="#r0"/><use x="362" y="194" xlink:href="#r0"/><use x="38" y="206" xlink:href="#r0"/><use x="86" y="206" xlink:href="#r0"/><use x="110" y="206" xlink:href="#r0"/><use x="134" y="206" xlink:href="#r0"/><use x="146" y="206" xlink:href="#r0"/><use x="158" y="206" xlink:href="#r0"/><use x="170" y="206" xlink:href="#r0"/><use x="194" y="206" xlink:href="#r0"/><use x="218" y="206" xlink:href="#r0"/><use x="230" y="206" xlink:href="#r0"/><use x="242" y="206" xlink:href="#r0"/><use x="254" y="206" xlink:href="#r0"/><use x="266" y="206" xlink:href="#r0"/><use x="290" y="206" xlink:href="#r0"/><use x="302" y="206" xlink:href="#r0"/><use x="314" y="206" xlink:href="#r0"/><use x="350" y="206" xlink:href="#r0"/><use x="362" y="206" xlink:href="#r0"/><use x="26" y="218" xlink:href="#r0"/><use x="38" y="218" xlink:href="#r0"/><use x="62" y="218" xlink:href="#r0"/><use x="74" y="218" xlink:href="#r0"/><use x="98" y="218" xlink:href="#r0"/><use x="122" y="218" xlink:href="#r0"/><use x="146" y="218" xlink:href="#r0"/><use x="158" y="218" xlink:href="#r0"/><use x="170" y="218" xlink:href="#r0"/><use x="206" y="218" xlink:href="#r0"/><use x="242" y="218" xlink:href="#r0"/><use x="266" y="218" xlink:href="#r0"/><use x="302" y="218" xlink:href="#r0"/><use x="26" y="230" xlink:href="#r0"/><use x="50" y="230" xlink:href="#r0"/><use x="74" y="230" xlink:href="#r0"/><use x="110" y="230" xlink:href="#r0"/><use x="134" y="230" xlink:href="#r0"/><use x="158" y="230" xlink:href="#r0"/><use x="182" y="230" xlink:href="#r0"/><use x="194" y="230" xlink:href="#r0"/><use x="206" y="230" xlink:href="#r0"/><use x="218" y="230" xlink:href="#r0"/><use x="254" y="230" xlink:href="#r0"/><use x="266" y="230" xlink:href="#r0"/><use x="302" y="230" xlink:href="#r0"/><use x="314" y="230" xlink:href="#r0"/><use x="326" y="230" xlink:href="#r0"/><use x="350" y="230" xlink:href="#r0"/><use x="26" y="242" xlink:href="#r0"/><use x="50" y="242" xlink:href="#r0"/><use x="98" y="242" xlink:href="#r0"/><use x="146" y="242" xlink:href="#r0"/><use x="158" y="242" xlink:href="#r0"/><use x="170" y="242" xlink:href="#r0"/><use x="182" y="242" xlink:href="#r0"/><use x="194" y="242" xlink:href="#r0"/><use x="230" y="242" xlink:href="#r0"/><use x="242" y="242" xlink:href="#r0"/><use x="254" y="242" xlink:href="#r0"/><use x="326" y="242" xlink:href="#r0"/><use x="338" y="242" xlink:href="#r0"/><use x="350" y="242" xlink:href="#r0"/><use x="26" y="254" xlink:href="#r0"/><use x="50" y="254" xlink:href="#r0"/><use x="110" y="254" xlink:href="#r0"/><use x="146" y="254" xlink:href="#r0"/><use x="158" y="254" xlink:href="#r0"/><use x="170" y="254" xlink:href="#r0"/><use x="182" y="254" xlink:href="#r0"/><use x="218" y="254" xlink:href="#r0"/><use x="230" y="254" xlink:href="#r0"/><use x="242" y="254" xlink:href="#r0"/><use x="254" y="254" xlink:href="#r0"/><use x="266" y="254" xlink:href="#r0"/><use x="278" y="254" xlink:href="#r0"/><use x="290" y="254" xlink:href="#r0"/><use x="302" y="254" xlink:href="#r0"/><use x="314" y="254" xlink:href="#r0"/><use x="350" y="254" xlink:href="#r0"/><use x="362" y="254" xlink:href="#r0"/><use x="26" y="266" xlink:href="#r0"/><use x="50" y="266" xlink:href="#r0"/><use x="62" y="266" xlink:href="#r0"/><use x="74" y="266" xlink:href="#r0"/><use x="98" y="266" xlink:href="#r0"/><use x="146" y="266" xlink:href="#r0"/><use x="158" y="266" xlink:href="#r0"/><use x="194" y="266" xlink:href="#r0"/><use x="206" y="266" xlink:href="#r0"/><use x="230" y="266" xlink:href="#r0"/><use x="266" y="266" xlink:href="#r0"/><use x="278" y="266" xlink:href="#r0"/><use x="290" y="266" xlink:href="#r0"/><use x="302" y="266" xlink:href="#r0"/><use x="314" y="266" xlink:href="#r0"/><use x="326" y="266" xlink:href="#r0"/><use x="338" y="266" xlink:href="#r0"/><use x="350" y="266" xlink:href="#r0"/><use x="122" y="278" xlink:href="#r0"/><use x="146" y="278" xlink:href="#r0"/><use x="218" y="278" xlink:href="#r0"/><use x="254" y="278" xlink:href="#r0"/><use x="266" y="278" xlink:href="#r0"/><use x="314" y="278" xlink:href="#r0"/><use x="350" y="278" xlink:href="#r0"/><use x="26" y="290" xlink:href="#r0"/><use x="38" y="290" xlink:href="#r0"/><use x="50" y="290" xlink:href="#r0"/><use x="62" y="290" xlink:href="#r0"/><use x="74" y="290" xlink:href="#r0"/><use x="86" y="290" xlink:href="#r0"/><use x="98" y="290" xlink:href="#r0"/><use x="134" y="290" xlink:href="#r0"/><use x="170" y="290" xlink:href="#r0"/><use x="230" y="290" xlink:href="#r0"/><use x="254" y="290" xlink:href="#r0"/><use x="266" y="290" xlink:href="#r0"/><use x="290" y="290" xlink:href="#r0"/><use x="314" y="290" xlink:href="#r0"/><use x="326" y="290" xlink:href="#r0"/><use x="338" y="290" xlink:href="#r0"/><use x="26" y="302" xlink:href="#r0"/><use x="98" y="302" xlink:href="#r0"/><use x="122" y="302" xlink:href="#r0"/><use x="170" y="302" xlink:href="#r0"/><use x="194" y="302" xlink:href="#r0"/><use x="218" y="302" xlink:href="#r0"/><use x="230" y="302" xlink:href="#r0"/><use x="242" y="302" xlink:href="#r0"/><use x="266" y="302" xlink:href="#r0"/><use x="314" y="302" xlink:href="#r0"/><use x="338" y="302" xlink:href="#r0"/><use x="350" y="302" xlink:href="#r0"/><use x="362" y="302" xlink:href="#r0"/><use x="26" y="314" xlink:href="#r0"/><use x="50" y="314" xlink:href="#r0"/><use x="62" y="314" xlink:href="#r0"/><use x="74" y="314" xlink:href="#r0"/><use x="98" y="314" xlink:href="#r0"/><use x="122" y="314" xlink:href="#r0"/><use x="158" y="314" xlink:href="#r0"/><use x="170" y="314" xlink:href="#r0"/><use x="206" y="314" xlink:href="#r0"/><use x="218" y="314" xlink:href="#r0"/><use x="230" y="314" xlink:href="#r0"/><use x="242" y="314" xlink:href="#r0"/><use x="266" y="314" xlink:href="#r0"/><use x="278" y="314" xlink:href="#r0"/><use x="290" y="314" xlink:href="#r0"/><use x="302" y="314" xlink:href="#r0"/><use x="314" y="314" xlink:href="#r0"/><use x="338" y="314" xlink:href="#r0"/><use x="350" y="314" xlink:href="#r0"/><use x="362" y="314" xlink:href="#r0"/><use x="26" y="326" xlink:href="#r0"/><use x="50" y="326" xlink:href="#r0"/><use x="62" y="326" xlink:href="#r0"/><use x="74" y="326" xlink:href="#r0"/><use x="98" y="326" xlink:href="#r0"/><use x="122" y="326" xlink:href="#r0"/><use x="134" y="326" xlink:href="#r0"/><use x="146" y="326" xlink:href="#r0"/><use x="158" y="326" xlink:href="#r0"/><use x="182" y="326" xlink:href="#r0"/><use x="194" y="326" xlink:href="#r0"/><use x="206" y="326" xlink:href="#r0"/><use x="242" y="326" xlink:href="#r0"/><use x="266" y="326" xlink:href="#r0"/><use x="278" y="326" xlink:href="#r0"/><use x="302" y="326" xlink:href="#r0"/><use x="26" y="338" xlink:href="#r0"/><use x="50" y="338" xlink:href="#r0"/><use x="62" y="338" xlink:href="#r0"/><use x="74" y="338" xlink:href="#r0"/><use x="98" y="338" xlink:href="#r0"/><use x="122" y="338" xlink:href="#r0"/><use x="134" y="338" xlink:href="#r0"/><use x="206" y="338" xlink:href="#r0"/><use x="230" y="338" xlink:href="#r0"/><use x="254" y="338" xlink:href="#r0"/><use x="278" y="338" xlink:href="#r0"/><use x="290" y="338" xlink:href="#r0"/><use x="302" y="338" xlink:href="#r0"/><use x="338" y="338" xlink:href="#r0"/><use x="350" y="338" xlink:href="#r0"/><use x="26" y="350" xlink:href="#r0"/><use x="98" y="350" xlink:href="#r0"/><use x="134" y="350" xlink:href="#r0"/><use x="158" y="350" xlink:href="#r0"/><use x="182" y="350" xlink:href="#r0"/><use x="194" y="350" xlink:href="#r0"/><use x="218" y="350" xlink:href="#r0"/><use x="230" y="350" xlink:href="#r0"/><use x="242" y="350" xlink:href="#r0"/><use x="266" y="350" xlink:href="#r0"/><use x="278" y="350" xlink:href="#r0"/><use x="326" y="350" xlink:href="#r0"/><use x="338" y="350" xlink:href="#r0"/><use x="362" y="350" xlink:href="#r0"/><use x="26" y="362" xlink:href="#r0"/><use x="38" y="362" xlink:href="#r0"/><use x="50" y="362" xlink:href="#r0"/><use x="62" y="362" xlink:href="#r0"/><use x="74" y="362" xlink:href="#r0"/><use x="86" y="362" xlink:href="#r0"/><use x="98" y="362" xlink:href="#r0"/><use x="122" y="362" xlink:href="#r0"/><use x="134" y="362" xlink:href="#r0"/><use x="146" y="362" xlink:href="#r0"/><use x="158" y="362" xlink:href="#r0"/><use x="170" y="362" xlink:href="#r0"/><use x="182" y="362" xlink:href="#r0"/><use x="194" y="362" xlink:href="#r0"/><use x="206" y="362" xlink:href="#r0"/><use x="218" y="362" xlink:href="#r0"/><use x="242" y="362" xlink:href="#r0"/><use x="254" y="362" xlink:href="#r0"/><use x="266" y="362" xlink:href="#r0"/><use x="278" y="362" xlink:href="#r0"/><use x="290" y="362" xlink:href="#r0"/><use x="314" y="362" xlink:href="#r0"/><use x="326" y="362" xlink:href="#r0"/><use x="338" y="362" xlink:href="#r0"/></svg>
